# 3ds Max Wavefront OBJ Exporter v0.97b - (c)2007 guruware
# File Created: 14.10.2019 21:44:34

mtllib piramide.mtl

#
# object Pyramid001
#

v  5.0047 9.9095 -14.9528
v  0.1019 0.0050 -10.0795
v  9.9075 0.0050 -10.0795
v  9.9075 0.0050 -19.8260
v  0.1019 0.0050 -19.8260
v  5.0047 0.0050 -14.9528
# 6 vertices

vn 0.0000 1.0000 -0.0000
vn -0.6624 -0.3513 0.6617
vn 0.6624 -0.3513 0.6617
vn 0.6624 -0.3513 -0.6617
vn -0.6624 -0.3513 -0.6617
vn 0.0000 -1.0000 -0.0000
# 6 vertex normals

vt 0.5023 0.7845 0.0000
vt 0.2313 0.2638 0.0000
vt 0.7590 0.2646 0.0000
vt 0.5024 0.7842 0.0000
vt 0.7570 0.2669 0.0000
vt 0.7942 0.2586 0.0000
vt 1.0162 0.0365 0.0000
vt 1.2382 0.2586 0.0000
vt 1.2382 -0.1855 0.0000
vt 0.7942 -0.1855 0.0000
# 10 texture coords

o Pyramid001
g Pyramid001
usemtl Material__26
s 4
f 1/1/1 2/2/2 3/3/3 
s 2
f 1/4/1 3/2/3 4/5/4 
s 16
f 1/1/1 4/2/4 5/3/5 
s 32
f 1/4/1 5/2/5 2/5/2 
s 8
f 2/6/2 6/7/6 3/8/3 
f 3/8/3 6/7/6 4/9/4 
f 4/9/4 6/7/6 5/10/5 
f 5/10/5 6/7/6 2/6/2 
# 0 polygons - 8 triangles

